<svg width="1395" height="1395" viewBox="0 0 1395 1395" fill="none" xmlns="http://www.w3.org/2000/svg">
<rect x="3" y="3.00024" width="1389" height="1389" stroke="white" stroke-width="6"/>
<rect y="1395" width="6" height="27" transform="rotate(-90 0 1395)" fill="white"/>
<rect y="1331.86" width="6" height="27" transform="rotate(-90 0 1331.86)" fill="white"/>
<rect y="1268.73" width="6" height="27" transform="rotate(-90 0 1268.73)" fill="white"/>
<rect y="1205.59" width="6" height="27" transform="rotate(-90 0 1205.59)" fill="white"/>
<rect y="1142.45" width="6" height="27" transform="rotate(-90 0 1142.45)" fill="white"/>
<rect y="1079.32" width="6" height="27" transform="rotate(-90 0 1079.32)" fill="white"/>
<rect y="1016.18" width="6" height="27" transform="rotate(-90 0 1016.18)" fill="white"/>
<rect y="953.046" width="6" height="27" transform="rotate(-90 0 953.046)" fill="white"/>
<rect y="889.909" width="6" height="27" transform="rotate(-90 0 889.909)" fill="white"/>
<rect y="826.773" width="6" height="27" transform="rotate(-90 0 826.773)" fill="white"/>
<rect y="763.637" width="6" height="27" transform="rotate(-90 0 763.637)" fill="white"/>
<rect y="700.5" width="6" height="27" transform="rotate(-90 0 700.5)" fill="white"/>
<rect y="637.364" width="6" height="27" transform="rotate(-90 0 637.364)" fill="white"/>
<rect y="574.228" width="6" height="27" transform="rotate(-90 0 574.228)" fill="white"/>
<rect y="511.091" width="6" height="27" transform="rotate(-90 0 511.091)" fill="white"/>
<rect y="447.955" width="6" height="27" transform="rotate(-90 0 447.955)" fill="white"/>
<rect y="384.819" width="6" height="27" transform="rotate(-90 0 384.819)" fill="white"/>
<rect y="321.682" width="6" height="27" transform="rotate(-90 0 321.682)" fill="white"/>
<rect y="258.546" width="6" height="27" transform="rotate(-90 0 258.546)" fill="white"/>
<rect y="195.409" width="6" height="27" transform="rotate(-90 0 195.409)" fill="white"/>
<rect y="132.273" width="6" height="27" transform="rotate(-90 0 132.273)" fill="white"/>
<rect y="69.1367" width="6" height="27" transform="rotate(-90 0 69.1367)" fill="white"/>
<rect y="6" width="6" height="27" transform="rotate(-90 0 6)" fill="white"/>
<rect x="1368" y="1395" width="6" height="27" transform="rotate(-90 1368 1395)" fill="white"/>
<rect x="1368" y="1331.86" width="6" height="27" transform="rotate(-90 1368 1331.86)" fill="white"/>
<rect x="1368" y="1268.73" width="6" height="27" transform="rotate(-90 1368 1268.73)" fill="white"/>
<rect x="1368" y="1205.59" width="6" height="27" transform="rotate(-90 1368 1205.59)" fill="white"/>
<rect x="1368" y="1142.45" width="6" height="27" transform="rotate(-90 1368 1142.45)" fill="white"/>
<rect x="1368" y="1079.32" width="6" height="27" transform="rotate(-90 1368 1079.32)" fill="white"/>
<rect x="1368" y="1016.18" width="6" height="27" transform="rotate(-90 1368 1016.18)" fill="white"/>
<rect x="1368" y="953.046" width="6" height="27" transform="rotate(-90 1368 953.046)" fill="white"/>
<rect x="1368" y="889.909" width="6" height="27" transform="rotate(-90 1368 889.909)" fill="white"/>
<rect x="1368" y="826.773" width="6" height="27" transform="rotate(-90 1368 826.773)" fill="white"/>
<rect x="1368" y="763.637" width="6" height="27" transform="rotate(-90 1368 763.637)" fill="white"/>
<rect x="1368" y="700.5" width="6" height="27" transform="rotate(-90 1368 700.5)" fill="white"/>
<rect x="1368" y="637.364" width="6" height="27" transform="rotate(-90 1368 637.364)" fill="white"/>
<rect x="1368" y="574.228" width="6" height="27" transform="rotate(-90 1368 574.228)" fill="white"/>
<rect x="1368" y="511.091" width="6" height="27" transform="rotate(-90 1368 511.091)" fill="white"/>
<rect x="1368" y="447.955" width="6" height="27" transform="rotate(-90 1368 447.955)" fill="white"/>
<rect x="1368" y="384.819" width="6" height="27" transform="rotate(-90 1368 384.819)" fill="white"/>
<rect x="1368" y="321.682" width="6" height="27" transform="rotate(-90 1368 321.682)" fill="white"/>
<rect x="1368" y="258.546" width="6" height="27" transform="rotate(-90 1368 258.546)" fill="white"/>
<rect x="1368" y="195.409" width="6" height="27" transform="rotate(-90 1368 195.409)" fill="white"/>
<rect x="1368" y="132.273" width="6" height="27" transform="rotate(-90 1368 132.273)" fill="white"/>
<rect x="1368" y="69.1367" width="6" height="27" transform="rotate(-90 1368 69.1367)" fill="white"/>
<rect x="1368" y="6" width="6" height="27" transform="rotate(-90 1368 6)" fill="white"/>
<rect y="0.000244141" width="6" height="27" fill="white"/>
<rect x="63.1362" y="0.000244141" width="6" height="27" fill="white"/>
<rect x="126.273" y="0.000244141" width="6" height="27" fill="white"/>
<rect x="189.409" y="0.000244141" width="6" height="27" fill="white"/>
<rect x="252.545" y="0.000244141" width="6" height="27" fill="white"/>
<rect x="315.682" y="0.000244141" width="6" height="27" fill="white"/>
<rect x="378.818" y="0.000244141" width="6" height="27" fill="white"/>
<rect x="441.955" y="0.000244141" width="6" height="27" fill="white"/>
<rect x="505.091" y="0.000244141" width="6" height="27" fill="white"/>
<rect x="568.227" y="0.000244141" width="6" height="27" fill="white"/>
<rect x="631.364" y="0.000244141" width="6" height="27" fill="white"/>
<rect x="694.5" y="0.000244141" width="6" height="27" fill="white"/>
<rect x="757.636" y="0.000244141" width="6" height="27" fill="white"/>
<rect x="820.772" y="0.000244141" width="6" height="27" fill="white"/>
<rect x="883.909" y="0.000244141" width="6" height="27" fill="white"/>
<rect x="947.045" y="0.000244141" width="6" height="27" fill="white"/>
<rect x="1010.18" y="0.000244141" width="6" height="27" fill="white"/>
<rect x="1073.32" y="0.000244141" width="6" height="27" fill="white"/>
<rect x="1136.45" y="0.000244141" width="6" height="27" fill="white"/>
<rect x="1199.59" y="0.000244141" width="6" height="27" fill="white"/>
<rect x="1262.73" y="0.000244141" width="6" height="27" fill="white"/>
<rect x="1325.86" y="0.000244141" width="6" height="27" fill="white"/>
<rect x="1389" y="0.000244141" width="6" height="27" fill="white"/>
<rect y="1368" width="6" height="27" fill="white"/>
<rect x="63.1362" y="1368" width="6" height="27" fill="white"/>
<rect x="126.273" y="1368" width="6" height="27" fill="white"/>
<rect x="189.409" y="1368" width="6" height="27" fill="white"/>
<rect x="252.545" y="1368" width="6" height="27" fill="white"/>
<rect x="315.682" y="1368" width="6" height="27" fill="white"/>
<rect x="378.818" y="1368" width="6" height="27" fill="white"/>
<rect x="441.955" y="1368" width="6" height="27" fill="white"/>
<rect x="505.091" y="1368" width="6" height="27" fill="white"/>
<rect x="568.227" y="1368" width="6" height="27" fill="white"/>
<rect x="631.364" y="1368" width="6" height="27" fill="white"/>
<rect x="694.5" y="1368" width="6" height="27" fill="white"/>
<rect x="757.636" y="1368" width="6" height="27" fill="white"/>
<rect x="820.772" y="1368" width="6" height="27" fill="white"/>
<rect x="883.909" y="1368" width="6" height="27" fill="white"/>
<rect x="947.045" y="1368" width="6" height="27" fill="white"/>
<rect x="1010.18" y="1368" width="6" height="27" fill="white"/>
<rect x="1073.32" y="1368" width="6" height="27" fill="white"/>
<rect x="1136.45" y="1368" width="6" height="27" fill="white"/>
<rect x="1199.59" y="1368" width="6" height="27" fill="white"/>
<rect x="1262.73" y="1368" width="6" height="27" fill="white"/>
<rect x="1325.86" y="1368" width="6" height="27" fill="white"/>
<rect x="1389" y="1368" width="6" height="27" fill="white"/>
</svg>
